SplineFontDB: 3.0
FontName: Legacy
FullName: Legacy
FamilyName: Legacy
Weight: Book
Version: 001.000
ItalicAngle: 0
UnderlinePosition: -100
UnderlineWidth: 50
Ascent: 750
Descent: 250
InvalidEm: 0
sfntRevision: 0x00010000
LayerCount: 2
Layer: 0 1 "Arri+AOgA-re" 1
Layer: 1 1 "Avant" 0
XUID: [1021 523 -1734722138 1766]
StyleMap: 0x0040
FSType: 4
OS2Version: 3
OS2_WeightWidthSlopeOnly: 0
OS2_UseTypoMetrics: 0
CreationTime: 1443410217
ModificationTime: 1477748736
PfmFamily: 17
TTFWeight: 400
TTFWidth: 5
LineGap: 0
VLineGap: 0
Panose: 2 0 0 0 0 0 0 0 0 0
OS2TypoAscent: 750
OS2TypoAOffset: 0
OS2TypoDescent: -250
OS2TypoDOffset: 0
OS2TypoLinegap: 0
OS2WinAscent: 583
OS2WinAOffset: 0
OS2WinDescent: 84
OS2WinDOffset: 0
HheadAscent: 750
HheadAOffset: 0
HheadDescent: -250
HheadDOffset: 0
OS2SubXSize: 700
OS2SubYSize: 650
OS2SubXOff: 0
OS2SubYOff: 140
OS2SupXSize: 700
OS2SupYSize: 650
OS2SupXOff: 0
OS2SupYOff: 477
OS2StrikeYSize: 50
OS2StrikeYPos: 250
OS2CapHeight: 700
OS2XHeight: 500
OS2Vendor: 'PYRS'
OS2CodePages: 00000001.00000000
OS2UnicodeRanges: 00000001.00000000.00000000.00000000
DEI: 91125
TtTable: prep
PUSHW_1
 0
CALL
EndTTInstrs
TtTable: fpgm
PUSHW_1
 0
FDEF
MPPEM
PUSHW_1
 9
LT
IF
PUSHB_2
 1
 1
INSTCTRL
EIF
PUSHW_1
 511
SCANCTRL
PUSHW_1
 68
SCVTCI
PUSHW_2
 9
 3
SDS
SDB
ENDF
PUSHW_1
 1
FDEF
DUP
DUP
RCVT
ROUND[Black]
WCVTP
PUSHB_1
 1
ADD
ENDF
PUSHW_1
 2
FDEF
PUSHW_1
 1
LOOPCALL
POP
ENDF
PUSHW_1
 3
FDEF
DUP
GC[cur]
PUSHB_1
 3
CINDEX
GC[cur]
GT
IF
SWAP
EIF
DUP
ROLL
DUP
ROLL
MD[grid]
ABS
ROLL
DUP
GC[cur]
DUP
ROUND[Grey]
SUB
ABS
PUSHB_1
 4
CINDEX
GC[cur]
DUP
ROUND[Grey]
SUB
ABS
GT
IF
SWAP
NEG
ROLL
EIF
MDAP[rnd]
DUP
PUSHB_1
 0
GTEQ
IF
ROUND[Black]
DUP
PUSHB_1
 0
EQ
IF
POP
PUSHB_1
 64
EIF
ELSE
ROUND[Black]
DUP
PUSHB_1
 0
EQ
IF
POP
PUSHB_1
 64
NEG
EIF
EIF
MSIRP[no-rp0]
ENDF
PUSHW_1
 4
FDEF
DUP
GC[cur]
PUSHB_1
 4
CINDEX
GC[cur]
GT
IF
SWAP
ROLL
EIF
DUP
GC[cur]
DUP
ROUND[White]
SUB
ABS
PUSHB_1
 4
CINDEX
GC[cur]
DUP
ROUND[White]
SUB
ABS
GT
IF
SWAP
ROLL
EIF
MDAP[rnd]

StartChar: underscore
Encoding: 95 95 1
Width: 499
Flags: W
LayerCount: 2
Fore
SplineSet
0 -1 m 1,0,-1
 417 -1 l 1,1,-1
 417 -84 l 1,2,-1
 0 -84 l 1,3,-1
 0 -1 l 1,0,-1
EndSplineSet
EndChar

StartChar: braceleft
Encoding: 123 123 2
Width: 312
Flags: W
LayerCount: 2
Fore
SplineSet
147 291 m 1,0,-1
 105 250 l 1,1,-1
 147 208 l 1,2,-1
 147 41 l 1,3,-1
 188 -1 l 1,4,-1
 230 -1 l 1,5,-1
 230 -84 l 1,6,-1
 147 -84 l 1,7,-1
 63 -1 l 1,8,-1
 63 187 l 1,9,-1
 1 250 l 1,10,-1
 63 312 l 1,11,-1
 63 500 l 1,12,-1
 147 583 l 1,13,-1
 230 583 l 1,14,-1
 230 500 l 1,15,-1
 188 500 l 1,16,-1
 147 458 l 1,17,-1
 147 291 l 1,0,-1
EndSplineSet
EndChar

StartChar: bar
Encoding: 124 124 3
Width: 165
Flags: W
LayerCount: 2
Fore
SplineSet
0 500 m 1,0,-1
 83 500 l 1,1,-1
 83 -1 l 1,2,-1
 0 -1 l 1,3,-1
 0 500 l 1,0,-1
EndSplineSet
EndChar

StartChar: braceright
Encoding: 125 125 4
Width: 312
Flags: W
LayerCount: 2
Fore
SplineSet
230 250 m 1,0,-1
 167 187 l 1,1,-1
 167 -1 l 1,2,-1
 84 -84 l 1,3,-1
 1 -84 l 1,4,-1
 1 -1 l 1,5,-1
 42 -1 l 1,6,-1
 84 41 l 1,7,-1
 84 208 l 1,8,-1
 126 250 l 1,9,-1
 84 291 l 1,10,-1
 84 458 l 1,11,-1
 42 500 l 1,12,-1
 1 500 l 1,13,-1
 1 583 l 1,14,-1
 84 583 l 1,15,-1
 167 500 l 1,16,-1
 167 312 l 1,17,-1
 230 250 l 1,0,-1
EndSplineSet
EndChar

StartChar: Euro
Encoding: 8364 8364 5
Width: 499
Flags: W
LayerCount: 2
Fore
SplineSet
417 416 m 1,0,-1
 125 416 l 1,1,-1
 125 364 l 1,2,-1
 292 364 l 1,3,-1
 292 281 l 1,4,-1
 125 281 l 1,5,-1
 125 229 l 1,6,-1
 292 229 l 1,7,-1
 292 145 l 1,8,-1
 125 145 l 1,9,-1
 125 83 l 1,10,-1
 417 83 l 1,11,-1
 417 -1 l 1,12,-1
 42 -1 l 1,13,-1
 42 145 l 1,14,-1
 0 145 l 1,15,-1
 0 229 l 1,16,-1
 42 229 l 1,17,-1
 42 281 l 1,18,-1
 0 281 l 1,19,-1
 0 364 l 1,20,-1
 42 364 l 1,21,-1
 42 500 l 1,22,-1
 417 500 l 1,23,-1
 417 416 l 1,0,-1
EndSplineSet
EndChar

StartChar: yen
Encoding: 165 165 6
Width: 499
Flags: W
LayerCount: 2
Fore
SplineSet
334 500 m 1,0,-1
 417 500 l 1,1,-1
 417 375 l 1,2,-1
 292 250 l 1,3,-1
 375 250 l 1,4,-1
 375 166 l 1,5,-1
 250 166 l 1,6,-1
 250 -1 l 1,7,-1
 167 -1 l 1,8,-1
 167 166 l 1,9,-1
 42 166 l 1,10,-1
 42 250 l 1,11,-1
 125 250 l 1,12,-1
 0 375 l 1,13,-1
 0 500 l 1,14,-1
 83 500 l 1,15,-1
 83 416 l 1,16,-1
 208 291 l 1,17,-1
 334 416 l 1,18,-1
 334 500 l 1,0,-1
EndSplineSet
EndChar

StartChar: b
Encoding: 98 98 7
Width: 499
Flags: W
LayerCount: 2
Fore
SplineSet
417 416 m 1,0,-1
 417 291 l 1,1,-1
 375 250 l 1,2,-1
 417 208 l 1,3,-1
 417 83 l 1,4,-1
 334 -1 l 1,5,-1
 0 -1 l 1,6,-1
 0 500 l 1,7,-1
 334 500 l 1,8,-1
 417 416 l 1,0,-1
334 125 m 1,9,-1
 334 166 l 1,10,-1
 292 208 l 1,11,-1
 83 208 l 1,12,-1
 83 83 l 1,13,-1
 292 83 l 1,14,-1
 334 125 l 1,9,-1
333 333 m 1,15,-1
 334 375 l 1,16,-1
 292 416 l 1,17,-1
 83 416 l 1,18,-1
 83 291 l 1,19,-1
 292 291 l 1,20,-1
 334 333 l 1,21,-1
 333 333 l 1,15,-1
EndSplineSet
EndChar

StartChar: c
Encoding: 99 99 8
Width: 499
Flags: W
LayerCount: 2
Fore
SplineSet
0 500 m 1,0,-1
 417 500 l 1,1,-1
 417 333 l 1,2,-1
 334 333 l 1,3,-1
 334 416 l 1,4,-1
 83 416 l 1,5,-1
 83 83 l 1,6,-1
 334 83 l 1,7,-1
 334 166 l 1,8,-1
 417 166 l 1,9,-1
 417 -1 l 1,10,-1
 0 -1 l 1,11,-1
 0 500 l 1,0,-1
EndSplineSet
EndChar

StartChar: d
Encoding: 100 100 9
Width: 499
Flags: W
LayerCount: 2
Fore
SplineSet
334 500 m 1,0,-1
 417 416 l 1,1,-1
 417 83 l 1,2,-1
 334 -1 l 1,3,-1
 0 -1 l 1,4,-1
 0 500 l 1,5,-1
 334 500 l 1,0,-1
334 125 m 1,6,-1
 334 375 l 1,7,-1
 292 416 l 1,8,-1
 83 416 l 1,9,-1
 83 83 l 1,10,-1
 292 83 l 1,11,-1
 334 125 l 1,6,-1
EndSplineSet
EndChar

StartChar: e
Encoding: 101 101 10
Width: 499
Flags: W
LayerCount: 2
Fore
SplineSet
0 500 m 1,0,-1
 417 500 l 1,1,-1
 417 333 l 1,2,-1
 334 333 l 1,3,-1
 334 416 l 1,4,-1
 83 416 l 1,5,-1
 83 291 l 1,6,-1
 250 291 l 1,7,-1
 250 208 l 1,8,-1
 83 208 l 1,9,-1
 83 83 l 1,10,-1
 334 83 l 1,11,-1
 334 166 l 1,12,-1
 417 166 l 1,13,-1
 417 -1 l 1,14,-1
 0 -1 l 1,15,-1
 0 500 l 1,0,-1
EndSplineSet
EndChar

StartChar: f
Encoding: 102 102 11
Width: 499
Flags: W
LayerCount: 2
Fore
SplineSet
0 500 m 1,0,-1
 417 500 l 1,1,-1
 417 333 l 1,2,-1
 334 333 l 1,3,-1
 334 416 l 1,4,-1
 83 416 l 1,5,-1
 83 291 l 1,6,-1
 250 291 l 1,7,-1
 250 208 l 1,8,-1
 83 208 l 1,9,-1
 83 -1 l 1,10,-1
 0 -1 l 1,11,-1
 0 500 l 1,0,-1
EndSplineSet
EndChar

StartChar: g
Encoding: 103 103 12
Width: 499
Flags: W
LayerCount: 2
Fore
SplineSet
83 416 m 1,0,-1
 83 83 l 1,1,-1
 334 83 l 1,2,-1
 334 208 l 1,3,-1
 167 208 l 1,4,-1
 167 291 l 1,5,-1
 417 291 l 1,6,-1
 417 -1 l 1,7,-1
 0 -1 l 1,8,-1
 0 500 l 1,9,-1
 417 500 l 1,10,-1
 417 416 l 1,11,-1
 83 416 l 1,0,-1
EndSplineSet
EndChar

StartChar: h
Encoding: 104 104 13
Width: 499
Flags: W
LayerCount: 2
Fore
SplineSet
334 500 m 1,0,-1
 417 500 l 1,1,-1
 417 -1 l 1,2,-1
 334 -1 l 1,3,-1
 334 208 l 1,4,-1
 83 208 l 1,5,-1
 83 -1 l 1,6,-1
 0 -1 l 1,7,-1
 0 500 l 1,8,-1
 83 500 l 1,9,-1
 83 291 l 1,10,-1
 334 291 l 1,11,-1
 334 500 l 1,0,-1
EndSplineSet
EndChar

StartChar: i
Encoding: 105 105 14
Width: 499
Flags: W
LayerCount: 2
Fore
SplineSet
250 416 m 1,0,-1
 250 83 l 1,1,-1
 417 83 l 1,2,-1
 417 -1 l 1,3,-1
 0 -1 l 1,4,-1
 0 83 l 1,5,-1
 167 83 l 1,6,-1
 167 416 l 1,7,-1
 0 416 l 1,8,-1
 0 500 l 1,9,-1
 417 500 l 1,10,-1
 417 416 l 1,11,-1
 250 416 l 1,0,-1
EndSplineSet
EndChar

StartChar: j
Encoding: 106 106 15
Width: 499
Flags: W
LayerCount: 2
Fore
SplineSet
167 500 m 1,0,-1
 417 500 l 1,1,-1
 417 -1 l 1,2,-1
 0 -1 l 1,3,-1
 0 166 l 1,4,-1
 83 166 l 1,5,-1
 83 83 l 1,6,-1
 334 83 l 1,7,-1
 334 416 l 1,8,-1
 167 416 l 1,9,-1
 167 500 l 1,0,-1
EndSplineSet
EndChar

StartChar: k
Encoding: 107 107 16
Width: 499
Flags: W
LayerCount: 2
Fore
SplineSet
417 416 m 1,0,-1
 337 416 l 1,1,-1
 208 281 l 1,2,-1
 417 281 l 1,3,-1
 417 -1 l 1,4,-1
 334 -1 l 1,5,-1
 334 198 l 1,6,-1
 83 198 l 1,7,-1
 83 -1 l 1,8,-1
 0 -1 l 1,9,-1
 0 500 l 1,10,-1
 83 500 l 1,11,-1
 83 281 l 1,12,-1
 292 500 l 1,13,-1
 417 500 l 1,14,-1
 417 416 l 1,0,-1
EndSplineSet
EndChar

StartChar: l
Encoding: 108 108 17
Width: 499
Flags: W
LayerCount: 2
Fore
SplineSet
334 250 m 1,0,-1
 417 250 l 1,1,-1
 417 -1 l 1,2,-1
 0 -1 l 1,3,-1
 0 500 l 1,4,-1
 83 500 l 1,5,-1
 83 83 l 1,6,-1
 334 83 l 1,7,-1
 334 250 l 1,0,-1
EndSplineSet
EndChar

StartChar: m
Encoding: 109 109 18
Width: 499
Flags: W
LayerCount: 2
Fore
SplineSet
334 500 m 1,0,-1
 417 500 l 1,1,-1
 417 -1 l 1,2,-1
 334 -1 l 1,3,-1
 334 375 l 1,4,-1
 208 250 l 1,5,-1
 83 375 l 1,6,-1
 83 -1 l 1,7,-1
 0 -1 l 1,8,-1
 0 500 l 1,9,-1
 83 500 l 1,10,-1
 208 375 l 1,11,-1
 334 500 l 1,0,-1
EndSplineSet
EndChar

StartChar: n
Encoding: 110 110 19
Width: 499
Flags: W
LayerCount: 2
Fore
SplineSet
334 500 m 1,0,-1
 417 500 l 1,1,-1
 417 -1 l 1,2,-1
 334 -1 l 1,3,-1
 334 41 l 1,4,-1
 83 333 l 1,5,-1
 83 -1 l 1,6,-1
 0 -1 l 1,7,-1
 0 500 l 1,8,-1
 83 500 l 1,9,-1
 83 458 l 1,10,-1
 334 166 l 1,11,-1
 334 500 l 1,0,-1
EndSplineSet
EndChar

StartChar: o
Encoding: 111 111 20
Width: 499
Flags: W
LayerCount: 2
Fore
SplineSet
0 500 m 1,0,-1
 417 500 l 1,1,-1
 417 -1 l 1,2,-1
 0 -1 l 1,3,-1
 0 500 l 1,0,-1
334 83 m 1,4,-1
 334 416 l 1,5,-1
 83 416 l 1,6,-1
 83 83 l 1,7,-1
 334 83 l 1,4,-1
EndSplineSet
EndChar

StartChar: p
Encoding: 112 112 21
Width: 499
Flags: W
LayerCount: 2
Fore
SplineSet
0 500 m 1,0,-1
 417 500 l 1,1,-1
 417 208 l 1,2,-1
 83 208 l 1,3,-1
 83 -1 l 1,4,-1
 0 -1 l 1,5,-1
 0 500 l 1,0,-1
334 291 m 1,6,-1
 334 416 l 1,7,-1
 83 416 l 1,8,-1
 83 291 l 1,9,-1
 334 291 l 1,6,-1
EndSplineSet
EndChar

StartChar: q
Encoding: 113 113 22
Width: 499
Flags: W
LayerCount: 2
Fore
SplineSet
417 500 m 1,0,-1
 417 208 l 1,1,-1
 344 135 l 1,2,-1
 417 62 l 1,3,-1
 417 -1 l 1,4,-1
 354 -1 l 1,5,-1
 281 72 l 1,6,-1
 208 -1 l 1,7,-1
 0 -1 l 1,8,-1
 0 500 l 1,9,-1
 417 500 l 1,0,-1
334 250 m 1,10,-1
 334 416 l 1,11,-1
 83 416 l 1,12,-1
 83 83 l 1,13,-1
 167 83 l 1,14,-1
 219 135 l 1,15,-1
 146 208 l 1,16,-1
 146 270 l 1,17,-1
 208 270 l 1,18,-1
 281 198 l 1,19,-1
 334 250 l 1,10,-1
EndSplineSet
EndChar

StartChar: r
Encoding: 114 114 23
Width: 499
Flags: W
LayerCount: 2
Fore
SplineSet
417 500 m 1,0,-1
 417 208 l 1,1,-1
 334 208 l 1,2,-1
 417 125 l 1,3,-1
 417 -1 l 1,4,-1
 334 -1 l 1,5,-1
 334 83 l 1,6,-1
 208 208 l 1,7,-1
 83 208 l 1,8,-1
 83 -1 l 1,9,-1
 0 -1 l 1,10,-1
 0 500 l 1,11,-1
 417 500 l 1,0,-1
334 291 m 1,12,-1
 334 416 l 1,13,-1
 83 416 l 1,14,-1
 83 291 l 1,15,-1
 334 291 l 1,12,-1
EndSplineSet
EndChar

StartChar: s
Encoding: 115 115 24
Width: 499
Flags: W
LayerCount: 2
Fore
SplineSet
83 416 m 1,0,-1
 83 291 l 1,1,-1
 417 291 l 1,2,-1
 417 -1 l 1,3,-1
 0 -1 l 1,4,-1
 0 83 l 1,5,-1
 334 83 l 1,6,-1
 334 208 l 1,7,-1
 0 208 l 1,8,-1
 0 500 l 1,9,-1
 417 500 l 1,10,-1
 417 416 l 1,11,-1
 83 416 l 1,0,-1
EndSplineSet
EndChar

StartChar: t
Encoding: 116 116 25
Width: 499
Flags: W
LayerCount: 2
Fore
SplineSet
0 500 m 1,0,-1
 417 500 l 1,1,-1
 417 333 l 1,2,-1
 334 333 l 1,3,-1
 334 416 l 1,4,-1
 250 416 l 1,5,-1
 250 83 l 1,6,-1
 334 83 l 1,7,-1
 334 -1 l 1,8,-1
 83 -1 l 1,9,-1
 83 83 l 1,10,-1
 167 83 l 1,11,-1
 167 416 l 1,12,-1
 83 416 l 1,13,-1
 83 333 l 1,14,-1
 0 333 l 1,15,-1
 0 500 l 1,0,-1
EndSplineSet
EndChar

StartChar: u
Encoding: 117 117 26
Width: 499
Flags: W
LayerCount: 2
Fore
SplineSet
334 500 m 1,0,-1
 417 500 l 1,1,-1
 417 -1 l 1,2,-1
 0 -1 l 1,3,-1
 0 500 l 1,4,-1
 83 500 l 1,5,-1
 83 83 l 1,6,-1
 334 83 l 1,7,-1
 334 500 l 1,0,-1
EndSplineSet
EndChar

StartChar: v
Encoding: 118 118 27
Width: 499
Flags: W
LayerCount: 2
Fore
SplineSet
334 500 m 1,0,-1
 417 500 l 1,1,-1
 417 166 l 1,2,-1
 250 -1 l 1,3,-1
 167 -1 l 1,4,-1
 0 166 l 1,5,-1
 0 500 l 1,6,-1
 83 500 l 1,7,-1
 83 208 l 1,8,-1
 208 83 l 1,9,-1
 334 208 l 1,10,-1
 334 500 l 1,0,-1
EndSplineSet
EndChar

StartChar: w
Encoding: 119 119 28
Width: 499
Flags: W
LayerCount: 2
Fore
SplineSet
334 500 m 1,0,-1
 417 500 l 1,1,-1
 417 -1 l 1,2,-1
 334 -1 l 1,3,-1
 208 125 l 1,4,-1
 83 -1 l 1,5,-1
 0 -1 l 1,6,-1
 0 500 l 1,7,-1
 83 500 l 1,8,-1
 83 125 l 1,9,-1
 208 250 l 1,10,-1
 334 125 l 1,11,-1
 334 500 l 1,0,-1
EndSplineSet
EndChar

StartChar: x
Encoding: 120 120 29
Width: 499
Flags: W
LayerCount: 2
Fore
SplineSet
417 416 m 1,0,-1
 250 250 l 1,1,-1
 417 83 l 1,2,-1
 417 -1 l 1,3,-1
 334 -1 l 1,4,-1
 334 41 l 1,5,-1
 208 166 l 1,6,-1
 83 41 l 1,7,-1
 83 -1 l 1,8,-1
 0 -1 l 1,9,-1
 0 83 l 1,10,-1
 167 250 l 1,11,-1
 0 416 l 1,12,-1
 0 500 l 1,13,-1
 83 500 l 1,14,-1
 83 458 l 1,15,-1
 208 333 l 1,16,-1
 334 458 l 1,17,-1
 334 500 l 1,18,-1
 417 500 l 1,19,-1
 417 416 l 1,20,-1
 417 416 l 1,0,-1
EndSplineSet
EndChar

StartChar: y
Encoding: 121 121 30
Width: 499
Flags: W
LayerCount: 2
Fore
SplineSet
334 500 m 1,0,-1
 417 500 l 1,1,-1
 417 -1 l 1,2,-1
 0 -1 l 1,3,-1
 0 83 l 1,4,-1
 334 83 l 1,5,-1
 334 208 l 1,6,-1
 0 208 l 1,7,-1
 0 500 l 1,8,-1
 83 500 l 1,9,-1
 83 291 l 1,10,-1
 334 291 l 1,11,-1
 334 500 l 1,0,-1
EndSplineSet
EndChar

StartChar: z
Encoding: 122 122 31
Width: 499
Flags: W
LayerCount: 2
Fore
SplineSet
417 500 m 1,0,-1
 417 416 l 1,1,-1
 125 83 l 1,2,-1
 417 83 l 1,3,-1
 417 -1 l 1,4,-1
 0 -1 l 1,5,-1
 0 83 l 1,6,-1
 292 416 l 1,7,-1
 0 416 l 1,8,-1
 0 500 l 1,9,-1
 417 500 l 1,0,-1
EndSplineSet
EndChar

StartChar: trademark
Encoding: 8482 8482 32
Width: 250
Flags: W
LayerCount: 2
Fore
SplineSet
188 458 m 1,0,-1
 209 458 l 1,1,-1
 209 333 l 1,2,-1
 188 333 l 1,3,-1
 188 406 l 1,4,-1
 157 333 l 1,5,-1
 126 406 l 1,6,-1
 126 333 l 1,7,-1
 105 333 l 1,8,-1
 105 437 l 1,9,-1
 63 437 l 1,10,-1
 63 333 l 1,11,-1
 42 333 l 1,12,-1
 42 437 l 1,13,-1
 1 437 l 1,14,-1
 1 458 l 1,15,-1
 105 458 l 1,16,-1
 126 458 l 1,17,-1
 157 385 l 1,18,-1
 188 458 l 1,0,-1
EndSplineSet
EndChar

StartChar: A
Encoding: 65 65 33
Width: 499
Flags: W
LayerCount: 2
Fore
SplineSet
0 500 m 1,0,-1
 417 500 l 1,1,-1
 417 -1 l 1,2,-1
 334 -1 l 1,3,-1
 334 208 l 1,4,-1
 83 208 l 1,5,-1
 83 -1 l 1,6,-1
 0 -1 l 1,7,-1
 0 500 l 1,0,-1
334 291 m 1,8,-1
 334 416 l 1,9,-1
 83 416 l 1,10,-1
 83 291 l 1,11,-1
 334 291 l 1,8,-1
EndSplineSet
EndChar

StartChar: B
Encoding: 66 66 34
Width: 499
Flags: W
LayerCount: 2
Fore
SplineSet
417 416 m 1,0,-1
 417 291 l 1,1,-1
 375 250 l 1,2,-1
 417 208 l 1,3,-1
 417 83 l 1,4,-1
 334 -1 l 1,5,-1
 0 -1 l 1,6,-1
 0 500 l 1,7,-1
 334 500 l 1,8,-1
 417 416 l 1,0,-1
334 125 m 1,9,-1
 334 166 l 1,10,-1
 292 208 l 1,11,-1
 83 208 l 1,12,-1
 83 83 l 1,13,-1
 292 83 l 1,14,-1
 334 125 l 1,9,-1
333 333 m 1,15,-1
 334 375 l 1,16,-1
 292 416 l 1,17,-1
 83 416 l 1,18,-1
 83 291 l 1,19,-1
 292 291 l 1,20,-1
 334 333 l 1,21,-1
 333 333 l 1,15,-1
EndSplineSet
EndChar

StartChar: C
Encoding: 67 67 35
Width: 499
Flags: W
LayerCount: 2
Fore
SplineSet
0 500 m 1,0,-1
 417 500 l 1,1,-1
 417 333 l 1,2,-1
 334 333 l 1,3,-1
 334 416 l 1,4,-1
 83 416 l 1,5,-1
 83 83 l 1,6,-1
 334 83 l 1,7,-1
 334 166 l 1,8,-1
 417 166 l 1,9,-1
 417 -1 l 1,10,-1
 0 -1 l 1,11,-1
 0 500 l 1,0,-1
EndSplineSet
EndChar

StartChar: D
Encoding: 68 68 36
Width: 499
Flags: W
LayerCount: 2
Fore
SplineSet
334 500 m 1,0,-1
 417 416 l 1,1,-1
 417 83 l 1,2,-1
 334 -1 l 1,3,-1
 0 -1 l 1,4,-1
 0 500 l 1,5,-1
 334 500 l 1,0,-1
334 125 m 1,6,-1
 334 375 l 1,7,-1
 292 416 l 1,8,-1
 83 416 l 1,9,-1
 83 83 l 1,10,-1
 292 83 l 1,11,-1
 334 125 l 1,6,-1
EndSplineSet
EndChar

StartChar: E
Encoding: 69 69 37
Width: 499
Flags: W
LayerCount: 2
Fore
SplineSet
0 500 m 1,0,-1
 417 500 l 1,1,-1
 417 333 l 1,2,-1
 334 333 l 1,3,-1
 334 416 l 1,4,-1
 83 416 l 1,5,-1
 83 291 l 1,6,-1
 250 291 l 1,7,-1
 250 208 l 1,8,-1
 83 208 l 1,9,-1
 83 83 l 1,10,-1
 334 83 l 1,11,-1
 334 166 l 1,12,-1
 417 166 l 1,13,-1
 417 -1 l 1,14,-1
 0 -1 l 1,15,-1
 0 500 l 1,0,-1
EndSplineSet
EndChar

StartChar: F
Encoding: 70 70 38
Width: 499
Flags: W
LayerCount: 2
Fore
SplineSet
0 500 m 1,0,-1
 417 500 l 1,1,-1
 417 333 l 1,2,-1
 334 333 l 1,3,-1
 334 416 l 1,4,-1
 83 416 l 1,5,-1
 83 291 l 1,6,-1
 250 291 l 1,7,-1
 250 208 l 1,8,-1
 83 208 l 1,9,-1
 83 -1 l 1,10,-1
 0 -1 l 1,11,-1
 0 500 l 1,0,-1
EndSplineSet
EndChar

StartChar: G
Encoding: 71 71 39
Width: 499
Flags: W
LayerCount: 2
Fore
SplineSet
83 416 m 1,0,-1
 83 83 l 1,1,-1
 334 83 l 1,2,-1
 334 208 l 1,3,-1
 167 208 l 1,4,-1
 167 291 l 1,5,-1
 417 291 l 1,6,-1
 417 -1 l 1,7,-1
 0 -1 l 1,8,-1
 0 500 l 1,9,-1
 417 500 l 1,10,-1
 417 416 l 1,11,-1
 83 416 l 1,0,-1
EndSplineSet
EndChar

StartChar: H
Encoding: 72 72 40
Width: 499
Flags: W
LayerCount: 2
Fore
SplineSet
334 500 m 1,0,-1
 417 500 l 1,1,-1
 417 -1 l 1,2,-1
 334 -1 l 1,3,-1
 334 208 l 1,4,-1
 83 208 l 1,5,-1
 83 -1 l 1,6,-1
 0 -1 l 1,7,-1
 0 500 l 1,8,-1
 83 500 l 1,9,-1
 83 291 l 1,10,-1
 334 291 l 1,11,-1
 334 500 l 1,0,-1
EndSplineSet
EndChar

StartChar: I
Encoding: 73 73 41
Width: 499
Flags: W
LayerCount: 2
Fore
SplineSet
250 416 m 1,0,-1
 250 83 l 1,1,-1
 417 83 l 1,2,-1
 417 -1 l 1,3,-1
 0 -1 l 1,4,-1
 0 83 l 1,5,-1
 167 83 l 1,6,-1
 167 416 l 1,7,-1
 0 416 l 1,8,-1
 0 500 l 1,9,-1
 417 500 l 1,10,-1
 417 416 l 1,11,-1
 250 416 l 1,0,-1
EndSplineSet
EndChar

StartChar: J
Encoding: 74 74 42
Width: 499
Flags: W
LayerCount: 2
Fore
SplineSet
167 500 m 1,0,-1
 417 500 l 1,1,-1
 417 -1 l 1,2,-1
 0 -1 l 1,3,-1
 0 166 l 1,4,-1
 83 166 l 1,5,-1
 83 83 l 1,6,-1
 334 83 l 1,7,-1
 334 416 l 1,8,-1
 167 416 l 1,9,-1
 167 500 l 1,0,-1
EndSplineSet
EndChar

StartChar: K
Encoding: 75 75 43
Width: 499
Flags: W
LayerCount: 2
Fore
SplineSet
417 416 m 1,0,-1
 337 416 l 1,1,-1
 208 281 l 1,2,-1
 417 281 l 1,3,-1
 417 -1 l 1,4,-1
 334 -1 l 1,5,-1
 334 198 l 1,6,-1
 83 198 l 1,7,-1
 83 -1 l 1,8,-1
 0 -1 l 1,9,-1
 0 500 l 1,10,-1
 83 500 l 1,11,-1
 83 281 l 1,12,-1
 292 500 l 1,13,-1
 417 500 l 1,14,-1
 417 416 l 1,0,-1
EndSplineSet
EndChar

StartChar: L
Encoding: 76 76 44
Width: 499
Flags: W
LayerCount: 2
Fore
SplineSet
334 250 m 1,0,-1
 417 250 l 1,1,-1
 417 -1 l 1,2,-1
 0 -1 l 1,3,-1
 0 500 l 1,4,-1
 83 500 l 1,5,-1
 83 83 l 1,6,-1
 334 83 l 1,7,-1
 334 250 l 1,0,-1
EndSplineSet
EndChar

StartChar: M
Encoding: 77 77 45
Width: 499
Flags: W
LayerCount: 2
Fore
SplineSet
334 500 m 1,0,-1
 417 500 l 1,1,-1
 417 -1 l 1,2,-1
 334 -1 l 1,3,-1
 334 375 l 1,4,-1
 208 250 l 1,5,-1
 83 375 l 1,6,-1
 83 -1 l 1,7,-1
 0 -1 l 1,8,-1
 0 500 l 1,9,-1
 83 500 l 1,10,-1
 208 375 l 1,11,-1
 334 500 l 1,0,-1
EndSplineSet
EndChar

StartChar: N
Encoding: 78 78 46
Width: 499
Flags: W
LayerCount: 2
Fore
SplineSet
334 500 m 1,0,-1
 417 500 l 1,1,-1
 417 -1 l 1,2,-1
 334 -1 l 1,3,-1
 334 41 l 1,4,-1
 83 333 l 1,5,-1
 83 -1 l 1,6,-1
 0 -1 l 1,7,-1
 0 500 l 1,8,-1
 83 500 l 1,9,-1
 83 458 l 1,10,-1
 334 166 l 1,11,-1
 334 500 l 1,0,-1
EndSplineSet
EndChar

StartChar: O
Encoding: 79 79 47
Width: 499
Flags: W
LayerCount: 2
Fore
SplineSet
0 500 m 1,0,-1
 417 500 l 1,1,-1
 417 -1 l 1,2,-1
 0 -1 l 1,3,-1
 0 500 l 1,0,-1
334 83 m 1,4,-1
 334 416 l 1,5,-1
 83 416 l 1,6,-1
 83 83 l 1,7,-1
 334 83 l 1,4,-1
EndSplineSet
EndChar

StartChar: P
Encoding: 80 80 48
Width: 499
Flags: W
LayerCount: 2
Fore
SplineSet
0 500 m 1,0,-1
 417 500 l 1,1,-1
 417 208 l 1,2,-1
 83 208 l 1,3,-1
 83 -1 l 1,4,-1
 0 -1 l 1,5,-1
 0 500 l 1,0,-1
334 291 m 1,6,-1
 334 416 l 1,7,-1
 83 416 l 1,8,-1
 83 291 l 1,9,-1
 334 291 l 1,6,-1
EndSplineSet
EndChar

StartChar: Q
Encoding: 81 81 49
Width: 499
Flags: W
LayerCount: 2
Fore
SplineSet
417 500 m 1,0,-1
 417 208 l 1,1,-1
 344 135 l 1,2,-1
 417 62 l 1,3,-1
 417 -1 l 1,4,-1
 354 -1 l 1,5,-1
 281 72 l 1,6,-1
 208 -1 l 1,7,-1
 0 -1 l 1,8,-1
 0 500 l 1,9,-1
 417 500 l 1,0,-1
334 250 m 1,10,-1
 334 416 l 1,11,-1
 83 416 l 1,12,-1
 83 83 l 1,13,-1
 167 83 l 1,14,-1
 219 135 l 1,15,-1
 146 208 l 1,16,-1
 146 270 l 1,17,-1
 208 270 l 1,18,-1
 281 198 l 1,19,-1
 334 250 l 1,10,-1
EndSplineSet
EndChar

StartChar: R
Encoding: 82 82 50
Width: 499
Flags: W
LayerCount: 2
Fore
SplineSet
417 500 m 1,0,-1
 417 208 l 1,1,-1
 334 208 l 1,2,-1
 417 125 l 1,3,-1
 417 -1 l 1,4,-1
 334 -1 l 1,5,-1
 334 83 l 1,6,-1
 208 208 l 1,7,-1
 83 208 l 1,8,-1
 83 -1 l 1,9,-1
 0 -1 l 1,10,-1
 0 500 l 1,11,-1
 417 500 l 1,0,-1
334 291 m 1,12,-1
 334 416 l 1,13,-1
 83 416 l 1,14,-1
 83 291 l 1,15,-1
 334 291 l 1,12,-1
EndSplineSet
EndChar

StartChar: S
Encoding: 83 83 51
Width: 499
Flags: W
LayerCount: 2
Fore
SplineSet
83 416 m 1,0,-1
 83 291 l 1,1,-1
 417 291 l 1,2,-1
 417 -1 l 1,3,-1
 0 -1 l 1,4,-1
 0 83 l 1,5,-1
 334 83 l 1,6,-1
 334 208 l 1,7,-1
 0 208 l 1,8,-1
 0 500 l 1,9,-1
 417 500 l 1,10,-1
 417 416 l 1,11,-1
 83 416 l 1,0,-1
EndSplineSet
EndChar

StartChar: T
Encoding: 84 84 52
Width: 499
Flags: W
LayerCount: 2
Fore
SplineSet
0 500 m 1,0,-1
 417 500 l 1,1,-1
 417 333 l 1,2,-1
 334 333 l 1,3,-1
 334 416 l 1,4,-1
 250 416 l 1,5,-1
 250 83 l 1,6,-1
 334 83 l 1,7,-1
 334 -1 l 1,8,-1
 83 -1 l 1,9,-1
 83 83 l 1,10,-1
 167 83 l 1,11,-1
 167 416 l 1,12,-1
 83 416 l 1,13,-1
 83 333 l 1,14,-1
 0 333 l 1,15,-1
 0 500 l 1,0,-1
EndSplineSet
EndChar

StartChar: U
Encoding: 85 85 53
Width: 499
Flags: W
LayerCount: 2
Fore
SplineSet
334 500 m 1,0,-1
 417 500 l 1,1,-1
 417 -1 l 1,2,-1
 0 -1 l 1,3,-1
 0 500 l 1,4,-1
 83 500 l 1,5,-1
 83 83 l 1,6,-1
 334 83 l 1,7,-1
 334 500 l 1,0,-1
EndSplineSet
EndChar

StartChar: V
Encoding: 86 86 54
Width: 499
Flags: W
LayerCount: 2
Fore
SplineSet
334 500 m 1,0,-1
 417 500 l 1,1,-1
 417 166 l 1,2,-1
 250 -1 l 1,3,-1
 167 -1 l 1,4,-1
 0 166 l 1,5,-1
 0 500 l 1,6,-1
 83 500 l 1,7,-1
 83 208 l 1,8,-1
 208 83 l 1,9,-1
 334 208 l 1,10,-1
 334 500 l 1,0,-1
EndSplineSet
EndChar

StartChar: W
Encoding: 87 87 55
Width: 499
Flags: W
LayerCount: 2
Fore
SplineSet
334 500 m 1,0,-1
 417 500 l 1,1,-1
 417 -1 l 1,2,-1
 334 -1 l 1,3,-1
 208 125 l 1,4,-1
 83 -1 l 1,5,-1
 0 -1 l 1,6,-1
 0 500 l 1,7,-1
 83 500 l 1,8,-1
 83 125 l 1,9,-1
 208 250 l 1,10,-1
 334 125 l 1,11,-1
 334 500 l 1,0,-1
EndSplineSet
EndChar

StartChar: X
Encoding: 88 88 56
Width: 499
Flags: W
LayerCount: 2
Fore
SplineSet
417 416 m 1,0,-1
 250 250 l 1,1,-1
 417 83 l 1,2,-1
 417 -1 l 1,3,-1
 334 -1 l 1,4,-1
 334 41 l 1,5,-1
 208 166 l 1,6,-1
 83 41 l 1,7,-1
 83 -1 l 1,8,-1
 0 -1 l 1,9,-1
 0 83 l 1,10,-1
 167 250 l 1,11,-1
 0 416 l 1,12,-1
 0 500 l 1,13,-1
 83 500 l 1,14,-1
 83 458 l 1,15,-1
 208 333 l 1,16,-1
 334 458 l 1,17,-1
 334 500 l 1,18,-1
 417 500 l 1,19,-1
 417 416 l 1,20,-1
 417 416 l 1,0,-1
EndSplineSet
EndChar

StartChar: Y
Encoding: 89 89 57
Width: 499
Flags: W
LayerCount: 2
Fore
SplineSet
334 500 m 1,0,-1
 417 500 l 1,1,-1
 417 -1 l 1,2,-1
 0 -1 l 1,3,-1
 0 83 l 1,4,-1
 334 83 l 1,5,-1
 334 208 l 1,6,-1
 0 208 l 1,7,-1
 0 500 l 1,8,-1
 83 500 l 1,9,-1
 83 291 l 1,10,-1
 334 291 l 1,11,-1
 334 500 l 1,0,-1
EndSplineSet
EndChar

StartChar: Z
Encoding: 90 90 58
Width: 499
Flags: W
LayerCount: 2
Fore
SplineSet
417 500 m 1,0,-1
 417 416 l 1,1,-1
 125 83 l 1,2,-1
 417 83 l 1,3,-1
 417 -1 l 1,4,-1
 0 -1 l 1,5,-1
 0 83 l 1,6,-1
 292 416 l 1,7,-1
 0 416 l 1,8,-1
 0 500 l 1,9,-1
 417 500 l 1,0,-1
EndSplineSet
EndChar

StartChar: circumflex
Encoding: 710 710 59
Width: 500
Flags: W
LayerCount: 2
Fore
SplineSet
209 658 m 1,0,-1
 418 450 l 1,1,-1
 313 450 l 1,2,-1
 209 553 l 1,3,-1
 106 450 l 1,4,-1
 1 450 l 1,5,-1
 209 658 l 1,0,-1
EndSplineSet
EndChar

StartChar: numbersign
Encoding: 35 35 60
Width: 561
Flags: W
LayerCount: 2
Fore
SplineSet
459 291 m 1,0,-1
 379 291 l 1,1,-1
 351 208 l 1,2,-1
 438 208 l 1,3,-1
 417 125 l 1,4,-1
 323 125 l 1,5,-1
 281 -1 l 1,6,-1
 198 -1 l 1,7,-1
 240 125 l 1,8,-1
 156 125 l 1,9,-1
 115 -1 l 1,10,-1
 31 -1 l 1,11,-1
 73 125 l 1,12,-1
 0 125 l 1,13,-1
 21 208 l 1,14,-1
 101 208 l 1,15,-1
 129 291 l 1,16,-1
 42 291 l 1,17,-1
 62 375 l 1,18,-1
 156 375 l 1,19,-1
 198 500 l 1,20,-1
 281 500 l 1,21,-1
 240 375 l 1,22,-1
 323 375 l 1,23,-1
 365 500 l 1,24,-1
 448 500 l 1,25,-1
 406 375 l 1,26,-1
 479 375 l 1,27,-1
 459 291 l 1,0,-1
267 208 m 1,28,-1
 295 291 l 1,29,-1
 212 291 l 1,30,-1
 184 208 l 1,31,-1
 267 208 l 1,28,-1
EndSplineSet
EndChar

StartChar: dollar
Encoding: 36 36 61
Width: 499
Flags: W
LayerCount: 2
Fore
SplineSet
83 416 m 1,0,-1
 83 291 l 1,1,-1
 417 291 l 1,2,-1
 417 -1 l 1,3,-1
 250 -1 l 1,4,-1
 250 -84 l 1,5,-1
 167 -84 l 1,6,-1
 167 -1 l 1,7,-1
 0 -1 l 1,8,-1
 0 83 l 1,9,-1
 334 83 l 1,10,-1
 334 208 l 1,11,-1
 0 208 l 1,12,-1
 0 500 l 1,13,-1
 167 500 l 1,14,-1
 167 583 l 1,15,-1
 250 583 l 1,16,-1
 250 500 l 1,17,-1
 417 500 l 1,18,-1
 417 416 l 1,19,-1
 83 416 l 1,0,-1
EndSplineSet
EndChar

StartChar: ampersand
Encoding: 38 38 62
Width: 499
Flags: W
LayerCount: 2
Fore
SplineSet
375 291 m 1,0,-1
 417 291 l 1,1,-1
 417 208 l 1,2,-1
 375 208 l 1,3,-1
 375 -1 l 1,4,-1
 83 -1 l 1,5,-1
 0 83 l 1,6,-1
 0 208 l 1,7,-1
 42 250 l 1,8,-1
 0 291 l 1,9,-1
 0 416 l 1,10,-1
 83 500 l 1,11,-1
 292 500 l 1,12,-1
 292 416 l 1,13,-1
 125 416 l 1,14,-1
 83 375 l 1,15,-1
 83 333 l 1,16,-1
 125 291 l 1,17,-1
 292 291 l 1,18,-1
 292 375 l 1,19,-1
 375 375 l 1,20,-1
 375 291 l 1,0,-1
292 83 m 1,21,-1
 292 208 l 1,22,-1
 125 208 l 1,23,-1
 83 166 l 1,24,-1
 83 125 l 1,25,-1
 125 83 l 1,26,-1
 292 83 l 1,21,-1
EndSplineSet
EndChar

StartChar: exclam
Encoding: 33 33 63
Width: 165
Flags: W
LayerCount: 2
Fore
SplineSet
0 0 m 1,0,-1
 0 84 l 1,1,-1
 83 84 l 1,2,-1
 83 0 l 1,3,-1
 0 0 l 1,0,-1
0 501 m 1,4,-1
 83 501 l 1,5,-1
 83 126 l 1,6,-1
 0 126 l 1,7,-1
 0 501 l 1,4,-1
EndSplineSet
EndChar

StartChar: parenright
Encoding: 41 41 64
Width: 249
Flags: W
LayerCount: 2
Fore
SplineSet
167 -1 m 1,0,-1
 84 -84 l 1,1,-1
 1 -84 l 1,2,-1
 1 -1 l 1,3,-1
 42 -1 l 1,4,-1
 84 41 l 1,5,-1
 84 458 l 1,6,-1
 42 500 l 1,7,-1
 1 500 l 1,8,-1
 1 583 l 1,9,-1
 84 583 l 1,10,-1
 167 500 l 1,11,-1
 167 -1 l 1,0,-1
EndSplineSet
EndChar

StartChar: parenleft
Encoding: 40 40 65
Width: 250
Flags: W
LayerCount: 2
Fore
SplineSet
85 41 m 1,0,-1
 126 -1 l 1,1,-1
 168 -1 l 1,2,-1
 168 -84 l 1,3,-1
 85 -84 l 1,4,-1
 1 -1 l 1,5,-1
 1 500 l 1,6,-1
 85 583 l 1,7,-1
 168 583 l 1,8,-1
 168 500 l 1,9,-1
 126 500 l 1,10,-1
 85 458 l 1,11,-1
 85 41 l 1,0,-1
EndSplineSet
EndChar

StartChar: colon
Encoding: 58 58 66
Width: 166
Flags: W
LayerCount: 2
Fore
SplineSet
1 83 m 1,0,-1
 1 166 l 1,1,-1
 84 166 l 1,2,-1
 84 83 l 1,3,-1
 1 83 l 1,0,-1
1 416 m 1,4,-1
 84 416 l 1,5,-1
 84 333 l 1,6,-1
 1 333 l 1,7,-1
 1 416 l 1,4,-1
EndSplineSet
EndChar

StartChar: semicolon
Encoding: 59 59 67
Width: 166
Flags: W
LayerCount: 2
Fore
SplineSet
1 0 m 1,0,-1
 1 167 l 1,1,-1
 84 167 l 1,2,-1
 84 84 l 1,3,-1
 1 0 l 1,0,-1
1 416 m 1,4,-1
 84 416 l 1,5,-1
 84 333 l 1,6,-1
 1 333 l 1,7,-1
 1 416 l 1,4,-1
EndSplineSet
EndChar

StartChar: less
Encoding: 60 60 68
Width: 270
Flags: W
LayerCount: 2
Fore
SplineSet
188 458 m 1,0,-1
 99 250 l 1,1,-1
 188 41 l 1,2,-1
 90 41 l 1,3,-1
 1 250 l 1,4,-1
 90 458 l 1,5,-1
 188 458 l 1,0,-1
EndSplineSet
EndChar

StartChar: greater
Encoding: 62 62 69
Width: 270
Flags: W
LayerCount: 2
Fore
SplineSet
99 458 m 1,0,-1
 188 250 l 1,1,-1
 99 41 l 1,2,-1
 1 41 l 1,3,-1
 90 250 l 1,4,-1
 1 458 l 1,5,-1
 99 458 l 1,0,-1
EndSplineSet
EndChar

StartChar: equal
Encoding: 61 61 70
Width: 416
Flags: W
LayerCount: 2
Fore
SplineSet
0 291 m 1,0,-1
 0 375 l 1,1,-1
 334 375 l 1,2,-1
 334 291 l 1,3,-1
 0 291 l 1,0,-1
0 125 m 1,4,-1
 0 208 l 1,5,-1
 334 208 l 1,6,-1
 334 125 l 1,7,-1
 0 125 l 1,4,-1
EndSplineSet
EndChar

StartChar: question
Encoding: 63 63 71
Width: 416
Flags: W
LayerCount: 2
Fore
SplineSet
0 0 m 1,0,-1
 0 83 l 1,1,-1
 83 83 l 1,2,-1
 83 0 l 1,3,-1
 0 0 l 1,0,-1
0 500 m 1,4,-1
 334 500 l 1,5,-1
 334 208 l 1,6,-1
 83 208 l 1,7,-1
 83 125 l 1,8,-1
 0 125 l 1,9,-1
 0 291 l 1,10,-1
 250 291 l 1,11,-1
 250 417 l 1,12,-1
 0 417 l 1,13,-1
 0 500 l 1,4,-1
EndSplineSet
EndChar

StartChar: at
Encoding: 64 64 72
Width: 499
Flags: W
LayerCount: 2
Fore
SplineSet
167 375 m 1,0,-1
 334 375 l 1,1,-1
 334 416 l 1,2,-1
 83 416 l 1,3,-1
 83 83 l 1,4,-1
 417 83 l 1,5,-1
 417 -1 l 1,6,-1
 0 -1 l 1,7,-1
 0 500 l 1,8,-1
 417 500 l 1,9,-1
 417 125 l 1,10,-1
 167 125 l 1,11,-1
 167 375 l 1,0,-1
334 208 m 1,12,-1
 334 291 l 1,13,-1
 250 291 l 1,14,-1
 250 208 l 1,15,-1
 334 208 l 1,12,-1
EndSplineSet
EndChar

StartChar: plus
Encoding: 43 43 73
Width: 416
Flags: W
LayerCount: 2
Fore
SplineSet
208 291 m 1,0,-1
 334 291 l 1,1,-1
 334 208 l 1,2,-1
 208 208 l 1,3,-1
 208 83 l 1,4,-1
 125 83 l 1,5,-1
 125 208 l 1,6,-1
 0 208 l 1,7,-1
 0 291 l 1,8,-1
 125 291 l 1,9,-1
 125 416 l 1,10,-1
 208 416 l 1,11,-1
 208 291 l 1,0,-1
EndSplineSet
EndChar

StartChar: hyphen
Encoding: 45 45 74
Width: 416
Flags: W
LayerCount: 2
Fore
SplineSet
0 291 m 1,0,-1
 334 291 l 1,1,-1
 334 208 l 1,2,-1
 0 208 l 1,3,-1
 0 291 l 1,0,-1
EndSplineSet
EndChar

StartChar: brokenbar
Encoding: 166 166 75
Width: 165
Flags: W
LayerCount: 2
Fore
SplineSet
83 210 m 1,0,-1
 83 0 l 1,1,-1
 0 0 l 1,2,-1
 0 210 l 1,3,-1
 83 210 l 1,0,-1
83 501 m 1,4,-1
 83 291 l 1,5,-1
 0 291 l 1,6,-1
 0 501 l 1,7,-1
 83 501 l 1,4,-1
EndSplineSet
EndChar

StartChar: guilsinglleft
Encoding: 8249 8249 76
Width: 270
Flags: W
LayerCount: 2
Fore
SplineSet
188 458 m 1,0,-1
 99 250 l 1,1,-1
 188 41 l 1,2,-1
 90 41 l 1,3,-1
 1 250 l 1,4,-1
 90 458 l 1,5,-1
 188 458 l 1,0,-1
EndSplineSet
EndChar

StartChar: guilsinglright
Encoding: 8250 8250 77
Width: 270
Flags: W
LayerCount: 2
Fore
SplineSet
99 458 m 1,0,-1
 188 250 l 1,1,-1
 99 41 l 1,2,-1
 1 41 l 1,3,-1
 90 250 l 1,4,-1
 1 458 l 1,5,-1
 99 458 l 1,0,-1
EndSplineSet
EndChar

StartChar: guillemotleft
Encoding: 171 171 78
Width: 419
Flags: W
LayerCount: 2
Fore
SplineSet
188 458 m 1,0,-1
 99 250 l 1,1,-1
 188 41 l 1,2,-1
 90 41 l 1,3,-1
 1 250 l 1,4,-1
 90 458 l 1,5,-1
 188 458 l 1,0,-1
337 458 m 1,6,-1
 248 250 l 1,7,-1
 337 41 l 1,8,-1
 239 41 l 1,9,-1
 150 250 l 1,10,-1
 239 458 l 1,11,-1
 337 458 l 1,6,-1
EndSplineSet
EndChar

StartChar: guillemotright
Encoding: 187 187 79
Width: 419
Flags: W
LayerCount: 2
Fore
SplineSet
150 41 m 1,0,-1
 239 250 l 1,1,-1
 150 458 l 1,2,-1
 248 458 l 1,3,-1
 337 250 l 1,4,-1
 248 41 l 1,5,-1
 150 41 l 1,0,-1
1 41 m 1,6,-1
 90 250 l 1,7,-1
 1 458 l 1,8,-1
 99 458 l 1,9,-1
 188 250 l 1,10,-1
 99 41 l 1,11,-1
 1 41 l 1,6,-1
EndSplineSet
EndChar

StartChar: quotedblright
Encoding: 8221 8221 81
Width: 290
Flags: W
LayerCount: 2
Fore
SplineSet
0 333 m 1,0,-1
 0 500 l 1,1,-1
 83 500 l 1,2,-1
 83 417 l 1,3,-1
 0 333 l 1,0,-1
125 500 m 1,4,-1
 208 500 l 1,5,-1
 208 417 l 1,6,-1
 125 333 l 1,7,-1
 125 500 l 1,4,-1
EndSplineSet
EndChar

StartChar: quotedblleft
Encoding: 8220 8220 82
Width: 290
Flags: W
LayerCount: 2
Fore
SplineSet
0 333 m 1,0,-1
 0 417 l 1,1,-1
 83 500 l 1,2,-1
 83 333 l 1,3,-1
 0 333 l 1,0,-1
125 333 m 1,4,-1
 125 417 l 1,5,-1
 208 500 l 1,6,-1
 208 333 l 1,7,-1
 125 333 l 1,4,-1
EndSplineSet
EndChar

StartChar: quoteright
Encoding: 8217 8217 83
Width: 166
Flags: W
LayerCount: 2
Fore
SplineSet
1 500 m 1,0,-1
 84 500 l 1,1,-1
 84 417 l 1,2,-1
 1 333 l 1,3,-1
 1 500 l 1,0,-1
EndSplineSet
EndChar

StartChar: quoteleft
Encoding: 8216 8216 84
Width: 166
Flags: W
LayerCount: 2
Fore
SplineSet
84 333 m 1,0,-1
 1 333 l 1,1,-1
 1 417 l 1,2,-1
 84 500 l 1,3,-1
 84 333 l 1,0,-1
EndSplineSet
EndChar

StartChar: period
Encoding: 46 46 85
Width: 165
Flags: W
LayerCount: 2
Fore
SplineSet
0 83 m 1,0,-1
 83 83 l 1,1,-1
 83 0 l 1,2,-1
 0 0 l 1,3,-1
 0 83 l 1,0,-1
EndSplineSet
EndChar

StartChar: bullet
Encoding: 8226 8226 86
Width: 249
Flags: W
LayerCount: 2
Fore
SplineSet
85 333 m 1,0,-1
 167 333 l 1,1,-1
 167 250 l 1,2,-1
 167 249 l 1,3,-1
 167 167 l 1,4,-1
 85 167 l 1,5,-1
 84 167 l 1,6,-1
 2 167 l 1,7,-1
 2 249 l 1,8,-1
 2 250 l 1,9,-1
 2 333 l 1,10,-1
 84 333 l 1,11,-1
 85 333 l 1,0,-1
EndSplineSet
EndChar

StartChar: quotedbl
Encoding: 34 34 87
Width: 290
Flags: W
LayerCount: 2
Fore
SplineSet
0 500 m 1,0,-1
 83 500 l 1,1,-1
 83 417 l 1,2,-1
 83 333 l 1,3,-1
 0 333 l 1,4,-1
 0 417 l 1,5,-1
 0 500 l 1,0,-1
125 500 m 1,6,-1
 208 500 l 1,7,-1
 208 417 l 1,8,-1
 208 333 l 1,9,-1
 125 333 l 1,10,-1
 125 417 l 1,11,-1
 125 500 l 1,6,-1
EndSplineSet
EndChar

StartChar: quotesingle
Encoding: 39 39 88
Width: 165
Flags: W
LayerCount: 2
Fore
SplineSet
83 500 m 1,0,-1
 83 417 l 1,1,-1
 83 333 l 1,2,-1
 0 333 l 1,3,-1
 0 417 l 1,4,-1
 0 500 l 1,5,-1
 83 500 l 1,0,-1
EndSplineSet
EndChar

StartChar: ellipsis
Encoding: 8230 8230 89
Width: 417
Flags: W
LayerCount: 2
Fore
SplineSet
0 83 m 1,0,-1
 83 83 l 1,1,-1
 83 0 l 1,2,-1
 0 0 l 1,3,-1
 0 83 l 1,0,-1
126 83 m 1,4,-1
 210 83 l 1,5,-1
 210 0 l 1,6,-1
 126 0 l 1,7,-1
 126 83 l 1,4,-1
251 83 m 1,8,-1
 335 83 l 1,9,-1
 335 0 l 1,10,-1
 251 0 l 1,11,-1
 251 83 l 1,8,-1
EndSplineSet
EndChar

StartChar: comma
Encoding: 44 44 90
Width: 165
Flags: W
LayerCount: 2
Fore
SplineSet
0 83 m 1,0,-1
 83 83 l 1,1,-1
 83 0 l 1,2,-1
 0 -83 l 1,3,-1
 0 83 l 1,0,-1
EndSplineSet
EndChar

StartChar: slash
Encoding: 47 47 91
Width: 332
Flags: W
LayerCount: 2
Fore
SplineSet
167 500 m 1,0,-1
 250 500 l 1,1,-1
 83 -1 l 1,2,-1
 0 -1 l 1,3,-1
 167 500 l 1,0,-1
EndSplineSet
EndChar

StartChar: grave
Encoding: 96 96 92
Width: 207
Flags: W
LayerCount: 2
Fore
SplineSet
125 375 m 1,0,-1
 42 375 l 1,1,-1
 0 500 l 1,2,-1
 83 500 l 1,3,-1
 125 375 l 1,0,-1
EndSplineSet
EndChar

StartChar: one
Encoding: 49 49 93
Width: 500
Flags: W
LayerCount: 2
Fore
SplineSet
376 83 m 1,0,-1
 418 83 l 1,1,-1
 418 -1 l 1,2,-1
 1 -1 l 1,3,-1
 1 83 l 1,4,-1
 293 83 l 1,5,-1
 293 416 l 1,6,-1
 167 416 l 1,7,-1
 126 375 l 1,8,-1
 126 333 l 1,9,-1
 42 333 l 1,10,-1
 42 416 l 1,11,-1
 126 500 l 1,12,-1
 376 500 l 1,13,-1
 376 83 l 1,0,-1
EndSplineSet
EndChar

StartChar: zero
Encoding: 48 48 94
Width: 500
Flags: W
LayerCount: 2
Fore
SplineSet
1 500 m 1,0,-1
 418 500 l 1,1,-1
 418 -1 l 1,2,-1
 1 -1 l 1,3,-1
 1 500 l 1,0,-1
84 416 m 1,4,-1
 84 178 l 1,5,-1
 293 416 l 1,6,-1
 84 416 l 1,4,-1
334 83 m 1,7,-1
 334 321 l 1,8,-1
 126 83 l 1,9,-1
 334 83 l 1,7,-1
EndSplineSet
EndChar

StartChar: two
Encoding: 50 50 95
Width: 500
Flags: W
LayerCount: 2
Fore
SplineSet
418 500 m 1,0,-1
 418 208 l 1,1,-1
 84 208 l 1,2,-1
 84 83 l 1,3,-1
 418 83 l 1,4,-1
 418 -1 l 1,5,-1
 1 -1 l 1,6,-1
 1 291 l 1,7,-1
 334 291 l 1,8,-1
 334 416 l 1,9,-1
 1 416 l 1,10,-1
 1 500 l 1,11,-1
 418 500 l 1,0,-1
EndSplineSet
EndChar

StartChar: three
Encoding: 51 51 96
Width: 500
Flags: W
LayerCount: 2
Fore
SplineSet
334 500 m 1,0,-1
 418 416 l 1,1,-1
 418 291 l 1,2,-1
 376 250 l 1,3,-1
 418 208 l 1,4,-1
 418 83 l 1,5,-1
 334 -1 l 1,6,-1
 1 -1 l 1,7,-1
 1 83 l 1,8,-1
 293 83 l 1,9,-1
 334 125 l 1,10,-1
 334 166 l 1,11,-1
 293 208 l 1,12,-1
 84 208 l 1,13,-1
 84 291 l 1,14,-1
 293 291 l 1,15,-1
 334 333 l 1,16,-1
 334 375 l 1,17,-1
 293 416 l 1,18,-1
 1 416 l 1,19,-1
 1 500 l 1,20,-1
 334 500 l 1,0,-1
EndSplineSet
EndChar

StartChar: four
Encoding: 52 52 97
Width: 500
Flags: W
LayerCount: 2
Fore
SplineSet
334 500 m 1,0,-1
 418 500 l 1,1,-1
 418 -1 l 1,2,-1
 334 -1 l 1,3,-1
 334 208 l 1,4,-1
 1 208 l 1,5,-1
 1 500 l 1,6,-1
 84 500 l 1,7,-1
 84 291 l 1,8,-1
 334 291 l 1,9,-1
 334 500 l 1,0,-1
EndSplineSet
EndChar

StartChar: five
Encoding: 53 53 98
Width: 500
Flags: W
LayerCount: 2
Fore
SplineSet
84 416 m 1,0,-1
 84 291 l 1,1,-1
 334 291 l 1,2,-1
 418 208 l 1,3,-1
 418 83 l 1,4,-1
 334 -1 l 1,5,-1
 1 -1 l 1,6,-1
 1 83 l 1,7,-1
 293 83 l 1,8,-1
 334 125 l 1,9,-1
 334 166 l 1,10,-1
 293 208 l 1,11,-1
 1 208 l 1,12,-1
 1 500 l 1,13,-1
 418 500 l 1,14,-1
 418 416 l 1,15,-1
 84 416 l 1,0,-1
EndSplineSet
EndChar

StartChar: six
Encoding: 54 54 99
Width: 500
Flags: W
LayerCount: 2
Fore
SplineSet
418 416 m 1,0,-1
 84 416 l 1,1,-1
 84 291 l 1,2,-1
 418 291 l 1,3,-1
 418 -1 l 1,4,-1
 1 -1 l 1,5,-1
 1 500 l 1,6,-1
 418 500 l 1,7,-1
 418 416 l 1,0,-1
334 208 m 1,8,-1
 84 208 l 1,9,-1
 84 83 l 1,10,-1
 334 83 l 1,11,-1
 334 208 l 1,8,-1
EndSplineSet
EndChar

StartChar: seven
Encoding: 55 55 100
Width: 500
Flags: W
LayerCount: 2
Fore
SplineSet
1 500 m 1,0,-1
 418 500 l 1,1,-1
 418 -1 l 1,2,-1
 334 -1 l 1,3,-1
 334 208 l 1,4,-1
 167 208 l 1,5,-1
 167 291 l 1,6,-1
 334 291 l 1,7,-1
 334 416 l 1,8,-1
 1 416 l 1,9,-1
 1 500 l 1,0,-1
EndSplineSet
EndChar

StartChar: eight
Encoding: 56 56 101
Width: 500
Flags: W
LayerCount: 2
Fore
SplineSet
1 500 m 1,0,-1
 418 500 l 1,1,-1
 418 -1 l 1,2,-1
 1 -1 l 1,3,-1
 1 500 l 1,0,-1
334 83 m 1,4,-1
 334 208 l 1,5,-1
 84 208 l 1,6,-1
 84 83 l 1,7,-1
 334 83 l 1,4,-1
334 291 m 1,8,-1
 334 416 l 1,9,-1
 84 416 l 1,10,-1
 84 291 l 1,11,-1
 334 291 l 1,8,-1
EndSplineSet
EndChar

StartChar: nine
Encoding: 57 57 102
Width: 500
Flags: W
LayerCount: 2
Fore
SplineSet
1 500 m 1,0,-1
 418 500 l 1,1,-1
 418 -1 l 1,2,-1
 1 -1 l 1,3,-1
 1 83 l 1,4,-1
 334 83 l 1,5,-1
 334 208 l 1,6,-1
 1 208 l 1,7,-1
 1 500 l 1,0,-1
334 291 m 1,8,-1
 334 416 l 1,9,-1
 84 416 l 1,10,-1
 84 291 l 1,11,-1
 334 291 l 1,8,-1
EndSplineSet
EndChar

StartChar: bracketleft
Encoding: 91 91 103
Width: 249
Flags: W
LayerCount: 2
Fore
SplineSet
84 500 m 1,0,-1
 84 -1 l 1,1,-1
 167 -1 l 1,2,-1
 167 -84 l 1,3,-1
 1 -84 l 1,4,-1
 1 583 l 1,5,-1
 167 583 l 1,6,-1
 167 500 l 1,7,-1
 84 500 l 1,0,-1
EndSplineSet
EndChar

StartChar: backslash
Encoding: 92 92 104
Width: 332
Flags: W
LayerCount: 2
Fore
SplineSet
83 500 m 1,0,-1
 250 -1 l 1,1,-1
 167 -1 l 1,2,-1
 0 500 l 1,3,-1
 83 500 l 1,0,-1
EndSplineSet
EndChar

StartChar: bracketright
Encoding: 93 93 105
Width: 249
Flags: W
LayerCount: 2
Fore
SplineSet
1 583 m 1,0,-1
 167 583 l 1,1,-1
 167 -84 l 1,2,-1
 1 -84 l 1,3,-1
 1 -1 l 1,4,-1
 84 -1 l 1,5,-1
 84 500 l 1,6,-1
 1 500 l 1,7,-1
 1 583 l 1,0,-1
EndSplineSet
EndChar

StartChar: asciicircum
Encoding: 94 94 106
Width: 500
Flags: W
LayerCount: 2
Fore
SplineSet
209 458 m 1,0,-1
 418 250 l 1,1,-1
 313 250 l 1,2,-1
 209 353 l 1,3,-1
 106 250 l 1,4,-1
 1 250 l 1,5,-1
 209 458 l 1,0,-1
EndSplineSet
EndChar

StartChar: a
Encoding: 97 97 107
Width: 499
Flags: W
LayerCount: 2
Fore
SplineSet
0 500 m 1,0,-1
 417 500 l 1,1,-1
 417 -1 l 1,2,-1
 334 -1 l 1,3,-1
 334 208 l 1,4,-1
 83 208 l 1,5,-1
 83 -1 l 1,6,-1
 0 -1 l 1,7,-1
 0 500 l 1,0,-1
334 291 m 1,8,-1
 334 416 l 1,9,-1
 83 416 l 1,10,-1
 83 291 l 1,11,-1
 334 291 l 1,8,-1
EndSplineSet
EndChar

StartChar: percent
Encoding: 37 37 109
Width: 1000
VWidth: 0
LayerCount: 2
Fore
SplineSet
564 154 m 1,0,-1
 706 154 l 1,1,-1
 703 28 l 1,2,-1
 561 28 l 1,3,-1
 564 154 l 1,0,-1
631 547 m 1,4,-1
 700 490 l 1,5,-1
 220 37 l 1,6,-1
 160 94 l 1,7,-1
 631 547 l 1,4,-1
150 556 m 1,8,-1
 292 556 l 1,9,-1
 289 430 l 1,10,-1
 147 430 l 1,11,-1
 150 556 l 1,8,-1
EndSplineSet
EndChar
